<mxfile host="app.diagrams.net" agent="Mozilla/5.0 (Windows NT 10.0; Win64; x64) AppleWebKit/537.36 (KHTML, like Gecko) Chrome/126.0.0.0 Safari/537.36" version="24.7.4">
  <diagram id="WkJrWjGkunN5e4CXoohL" name="Página-1">
    <mxGraphModel dx="1750" dy="928" grid="1" gridSize="10" guides="1" tooltips="1" connect="1" arrows="1" fold="1" page="1" pageScale="1" pageWidth="827" pageHeight="1169" math="0" shadow="0">
      <root>
        <mxCell id="0" />
        <mxCell id="1" parent="0" />
        <mxCell id="K8_ui_SBJjw02FJmMIiY-1" value="" style="rounded=0;whiteSpace=wrap;html=1;" vertex="1" parent="1">
          <mxGeometry x="240" y="80" width="350" height="1160" as="geometry" />
        </mxCell>
        <mxCell id="K8_ui_SBJjw02FJmMIiY-20" style="edgeStyle=orthogonalEdgeStyle;rounded=0;orthogonalLoop=1;jettySize=auto;html=1;exitX=1;exitY=0.3333333333333333;exitDx=0;exitDy=0;exitPerimeter=0;entryX=0;entryY=0.5;entryDx=0;entryDy=0;fillColor=#f8cecc;strokeColor=#b85450;" edge="1" parent="1" source="K8_ui_SBJjw02FJmMIiY-2" target="K8_ui_SBJjw02FJmMIiY-6">
          <mxGeometry relative="1" as="geometry" />
        </mxCell>
        <mxCell id="K8_ui_SBJjw02FJmMIiY-21" style="edgeStyle=orthogonalEdgeStyle;rounded=0;orthogonalLoop=1;jettySize=auto;html=1;exitX=0.5;exitY=0.5;exitDx=0;exitDy=0;exitPerimeter=0;entryX=0;entryY=0.5;entryDx=0;entryDy=0;fillColor=#f8cecc;strokeColor=#b85450;" edge="1" parent="1" source="K8_ui_SBJjw02FJmMIiY-2" target="K8_ui_SBJjw02FJmMIiY-7">
          <mxGeometry relative="1" as="geometry" />
        </mxCell>
        <mxCell id="K8_ui_SBJjw02FJmMIiY-22" style="edgeStyle=orthogonalEdgeStyle;rounded=0;orthogonalLoop=1;jettySize=auto;html=1;exitX=1;exitY=1;exitDx=0;exitDy=0;exitPerimeter=0;entryX=0;entryY=0.5;entryDx=0;entryDy=0;fillColor=#f8cecc;strokeColor=#b85450;" edge="1" parent="1" source="K8_ui_SBJjw02FJmMIiY-2" target="K8_ui_SBJjw02FJmMIiY-8">
          <mxGeometry relative="1" as="geometry" />
        </mxCell>
        <mxCell id="K8_ui_SBJjw02FJmMIiY-23" style="edgeStyle=orthogonalEdgeStyle;rounded=0;orthogonalLoop=1;jettySize=auto;html=1;exitX=0.25;exitY=0.1;exitDx=0;exitDy=0;exitPerimeter=0;entryX=0;entryY=0.5;entryDx=0;entryDy=0;fillColor=#f8cecc;strokeColor=#b85450;" edge="1" parent="1" source="K8_ui_SBJjw02FJmMIiY-2" target="K8_ui_SBJjw02FJmMIiY-9">
          <mxGeometry relative="1" as="geometry">
            <Array as="points">
              <mxPoint x="40" y="146" />
              <mxPoint x="40" y="495" />
            </Array>
          </mxGeometry>
        </mxCell>
        <mxCell id="K8_ui_SBJjw02FJmMIiY-24" style="edgeStyle=orthogonalEdgeStyle;rounded=0;orthogonalLoop=1;jettySize=auto;html=1;exitX=0;exitY=0.3333333333333333;exitDx=0;exitDy=0;exitPerimeter=0;entryX=0;entryY=0.5;entryDx=0;entryDy=0;fillColor=#f8cecc;strokeColor=#b85450;" edge="1" parent="1" source="K8_ui_SBJjw02FJmMIiY-2" target="K8_ui_SBJjw02FJmMIiY-10">
          <mxGeometry relative="1" as="geometry">
            <Array as="points">
              <mxPoint x="80" y="400" />
              <mxPoint x="210" y="400" />
              <mxPoint x="210" y="610" />
            </Array>
          </mxGeometry>
        </mxCell>
        <mxCell id="K8_ui_SBJjw02FJmMIiY-25" style="edgeStyle=orthogonalEdgeStyle;rounded=0;orthogonalLoop=1;jettySize=auto;html=1;exitX=0.5;exitY=0;exitDx=0;exitDy=0;exitPerimeter=0;entryX=0;entryY=0.5;entryDx=0;entryDy=0;fillColor=#f8cecc;strokeColor=#b85450;" edge="1" parent="1" source="K8_ui_SBJjw02FJmMIiY-2" target="K8_ui_SBJjw02FJmMIiY-11">
          <mxGeometry relative="1" as="geometry">
            <Array as="points">
              <mxPoint x="95" y="120" />
              <mxPoint x="150" y="120" />
              <mxPoint x="150" y="730" />
            </Array>
          </mxGeometry>
        </mxCell>
        <mxCell id="K8_ui_SBJjw02FJmMIiY-26" style="edgeStyle=orthogonalEdgeStyle;rounded=0;orthogonalLoop=1;jettySize=auto;html=1;exitX=0.25;exitY=0.1;exitDx=0;exitDy=0;exitPerimeter=0;entryX=0;entryY=0.5;entryDx=0;entryDy=0;fillColor=#f8cecc;strokeColor=#b85450;" edge="1" parent="1" source="K8_ui_SBJjw02FJmMIiY-2" target="K8_ui_SBJjw02FJmMIiY-12">
          <mxGeometry relative="1" as="geometry">
            <Array as="points">
              <mxPoint x="130" y="146" />
              <mxPoint x="130" y="840" />
            </Array>
          </mxGeometry>
        </mxCell>
        <mxCell id="K8_ui_SBJjw02FJmMIiY-2" value="Usuario" style="shape=umlActor;verticalLabelPosition=bottom;verticalAlign=top;html=1;outlineConnect=0;" vertex="1" parent="1">
          <mxGeometry x="80" y="140" width="30" height="60" as="geometry" />
        </mxCell>
        <mxCell id="K8_ui_SBJjw02FJmMIiY-17" style="edgeStyle=orthogonalEdgeStyle;rounded=0;orthogonalLoop=1;jettySize=auto;html=1;exitX=0.5;exitY=0.5;exitDx=0;exitDy=0;exitPerimeter=0;entryX=0;entryY=0.5;entryDx=0;entryDy=0;fillColor=#dae8fc;strokeColor=#6c8ebf;" edge="1" parent="1" source="K8_ui_SBJjw02FJmMIiY-3" target="K8_ui_SBJjw02FJmMIiY-14">
          <mxGeometry relative="1" as="geometry" />
        </mxCell>
        <mxCell id="K8_ui_SBJjw02FJmMIiY-19" style="edgeStyle=orthogonalEdgeStyle;rounded=0;orthogonalLoop=1;jettySize=auto;html=1;exitX=0;exitY=0.3333333333333333;exitDx=0;exitDy=0;exitPerimeter=0;entryX=0;entryY=0.5;entryDx=0;entryDy=0;fillColor=#dae8fc;strokeColor=#6c8ebf;" edge="1" parent="1" source="K8_ui_SBJjw02FJmMIiY-3" target="K8_ui_SBJjw02FJmMIiY-16">
          <mxGeometry relative="1" as="geometry" />
        </mxCell>
        <mxCell id="K8_ui_SBJjw02FJmMIiY-3" value="Adminstrador" style="shape=umlActor;verticalLabelPosition=bottom;verticalAlign=top;html=1;outlineConnect=0;" vertex="1" parent="1">
          <mxGeometry x="70" y="510" width="30" height="60" as="geometry" />
        </mxCell>
        <mxCell id="K8_ui_SBJjw02FJmMIiY-6" value="&lt;li&gt;&lt;strong&gt;Registro de Usuario&lt;/strong&gt;&lt;/li&gt;" style="ellipse;whiteSpace=wrap;html=1;fillColor=#f8cecc;strokeColor=#b85450;" vertex="1" parent="1">
          <mxGeometry x="280" y="110" width="280" height="80" as="geometry" />
        </mxCell>
        <mxCell id="K8_ui_SBJjw02FJmMIiY-7" value="&lt;li&gt;&lt;strong&gt;Inicio de Sesión&lt;br&gt;&lt;/strong&gt;&lt;/li&gt;" style="ellipse;whiteSpace=wrap;html=1;fillColor=#f8cecc;strokeColor=#b85450;" vertex="1" parent="1">
          <mxGeometry x="275" y="220" width="280" height="80" as="geometry" />
        </mxCell>
        <mxCell id="K8_ui_SBJjw02FJmMIiY-8" value="&lt;li&gt;&lt;strong&gt;Capturar Foto de la Nevera&lt;/strong&gt;&lt;/li&gt;" style="ellipse;whiteSpace=wrap;html=1;fillColor=#f8cecc;strokeColor=#b85450;" vertex="1" parent="1">
          <mxGeometry x="275" y="336" width="280" height="80" as="geometry" />
        </mxCell>
        <mxCell id="K8_ui_SBJjw02FJmMIiY-9" value="&lt;li&gt;&lt;strong&gt;Procesar Imagen y Detectar Alimentos&lt;/strong&gt;&lt;/li&gt;" style="ellipse;whiteSpace=wrap;html=1;fillColor=#f8cecc;strokeColor=#b85450;" vertex="1" parent="1">
          <mxGeometry x="280" y="455" width="280" height="80" as="geometry" />
        </mxCell>
        <mxCell id="K8_ui_SBJjw02FJmMIiY-10" value="&lt;li&gt;&lt;strong&gt;Mostrar Alimentos en la Nevera Virtual&lt;/strong&gt;&lt;/li&gt;" style="ellipse;whiteSpace=wrap;html=1;fillColor=#f8cecc;strokeColor=#b85450;" vertex="1" parent="1">
          <mxGeometry x="280" y="570" width="280" height="80" as="geometry" />
        </mxCell>
        <mxCell id="K8_ui_SBJjw02FJmMIiY-11" value="&lt;li&gt;&lt;strong&gt;Obtener Recetas Basadas en los Alimentos de la Nevera&lt;/strong&gt;&lt;/li&gt;" style="ellipse;whiteSpace=wrap;html=1;fillColor=#f8cecc;strokeColor=#b85450;" vertex="1" parent="1">
          <mxGeometry x="280" y="690" width="280" height="80" as="geometry" />
        </mxCell>
        <mxCell id="K8_ui_SBJjw02FJmMIiY-12" value="&lt;li&gt;&lt;strong&gt;Revisar Recetas&lt;/strong&gt;&lt;/li&gt;&lt;h3&gt;&lt;/h3&gt;" style="ellipse;whiteSpace=wrap;html=1;fillColor=#f8cecc;strokeColor=#b85450;" vertex="1" parent="1">
          <mxGeometry x="280" y="800" width="280" height="80" as="geometry" />
        </mxCell>
        <mxCell id="K8_ui_SBJjw02FJmMIiY-14" value="&lt;li&gt;&lt;strong&gt;Gestionar Usuarios&lt;/strong&gt;&lt;/li&gt;" style="ellipse;whiteSpace=wrap;html=1;fillColor=#dae8fc;strokeColor=#6c8ebf;" vertex="1" parent="1">
          <mxGeometry x="280" y="910" width="280" height="80" as="geometry" />
        </mxCell>
        <mxCell id="K8_ui_SBJjw02FJmMIiY-15" value="&lt;li&gt;&lt;strong&gt;Gestionar Recetas&lt;/strong&gt;&lt;/li&gt;" style="ellipse;whiteSpace=wrap;html=1;fillColor=#dae8fc;strokeColor=#6c8ebf;" vertex="1" parent="1">
          <mxGeometry x="280" y="1020" width="280" height="80" as="geometry" />
        </mxCell>
        <mxCell id="K8_ui_SBJjw02FJmMIiY-16" value="&lt;li&gt;&lt;strong&gt;Revisar Alimentos&lt;/strong&gt;&lt;/li&gt;&lt;h3&gt;&lt;/h3&gt;&lt;h3&gt;&lt;/h3&gt;" style="ellipse;whiteSpace=wrap;html=1;fillColor=#dae8fc;strokeColor=#6c8ebf;" vertex="1" parent="1">
          <mxGeometry x="280" y="1120" width="280" height="80" as="geometry" />
        </mxCell>
        <mxCell id="K8_ui_SBJjw02FJmMIiY-18" style="edgeStyle=orthogonalEdgeStyle;rounded=0;orthogonalLoop=1;jettySize=auto;html=1;exitX=1;exitY=1;exitDx=0;exitDy=0;exitPerimeter=0;entryX=-0.012;entryY=0.658;entryDx=0;entryDy=0;entryPerimeter=0;fillColor=#dae8fc;strokeColor=#6c8ebf;" edge="1" parent="1" source="K8_ui_SBJjw02FJmMIiY-3" target="K8_ui_SBJjw02FJmMIiY-15">
          <mxGeometry relative="1" as="geometry">
            <Array as="points">
              <mxPoint x="100" y="1073" />
            </Array>
          </mxGeometry>
        </mxCell>
      </root>
    </mxGraphModel>
  </diagram>
</mxfile>
